<svg width="20" height="20" viewBox="0 0 20 20" fill="none" xmlns="http://www.w3.org/2000/svg">
<g clip-path="url(#clip0_2707_9404)">
<path d="M20 10C20 4.47656 15.5234 0 10 0C4.47656 0 0 4.47656 0 10C0 14.9918 3.65469 19.1289 8.43828 19.8793V12.893H5.90117V10H8.43828V7.79727C8.43828 5.29297 9.92852 3.90703 12.2137 3.90703C13.3094 3.90703 14.4547 4.1043 14.4547 4.1043V6.56445H13.1945C11.9508 6.56445 11.5672 7.33711 11.5672 8.12617V10H14.3398L13.8961 12.893H11.5672V19.8793C16.3453 19.1289 20 14.9918 20 10Z" fill="white"/>
<path d="M13.8902 12.8932L14.3344 10.0002H11.5617V8.12637C11.5617 7.3373 11.9508 6.56465 13.1891 6.56465H14.4492V4.10449C14.4492 4.10449 13.3039 3.90723 12.2082 3.90723C9.92343 3.90723 8.4328 5.29355 8.4328 7.79746V10.0002H5.89569V12.8932H8.4328V19.8795C8.94257 19.9615 9.46288 20.0002 9.99452 20.0002C10.5262 20.0002 11.0465 19.9564 11.5562 19.8795V12.8932H13.8902Z" fill="#8AA6AA"/>
</g>
<defs>
<clipPath id="clip0_2707_9404">
<rect width="20" height="20" fill="white"/>
</clipPath>
</defs>
</svg>
