<svg width="64" height="64" viewBox="0 0 64 64" fill="none" xmlns="http://www.w3.org/2000/svg">
<path d="M55.5 16.8348C55.4874 15.6973 55.2453 14.574 54.7882 13.5323C54.3312 12.4906 53.6685 11.5518 52.84 10.7723C49.53 7.63979 44.17 7.74979 40.885 11.0448L35.705 16.2498L35.5475 16.0923C34.5161 15.061 33.1173 14.4817 31.6587 14.4817C30.2002 14.4817 28.8014 15.061 27.77 16.0923L25.52 18.3423C25.1946 18.6673 24.9364 19.0534 24.7603 19.4782C24.5842 19.9031 24.4935 20.3586 24.4935 20.8185C24.4935 21.2785 24.5842 21.7339 24.7603 22.1588C24.9364 22.5837 25.1946 22.9697 25.52 23.2948L26.3875 24.1623L13.285 37.2748C12.1 38.4514 11.248 39.9211 10.8159 41.5341C10.3838 43.1471 10.3869 44.8459 10.825 46.4573L8.7475 51.2073C8.50936 51.7477 8.44065 52.3475 8.55045 52.9278C8.66024 53.508 8.94338 54.0413 9.3625 54.4573C9.68445 54.7856 10.0683 55.0467 10.4918 55.2257C10.9154 55.4046 11.3702 55.4978 11.83 55.4998C12.3186 55.5006 12.8021 55.4001 13.25 55.2048L17.75 53.2298C19.3339 53.616 20.9907 53.5873 22.5602 53.1463C24.1297 52.7053 25.559 51.8669 26.71 50.7123L39.82 37.5973L40.6875 38.4673C41.0125 38.7923 41.3984 39.0502 41.823 39.2261C42.2477 39.402 42.7028 39.4925 43.1625 39.4925C43.6222 39.4925 44.0773 39.402 44.502 39.2261C44.9266 39.0502 45.3125 38.7923 45.6375 38.4673L47.8875 36.2173C48.3985 35.7065 48.8039 35.1001 49.0804 34.4326C49.357 33.7652 49.4993 33.0498 49.4993 32.3273C49.4993 31.6048 49.357 30.8894 49.0804 30.2219C48.8039 29.5545 48.3985 28.948 47.8875 28.4373L47.7225 28.2723L53 22.9623C53.808 22.162 54.446 21.2068 54.8756 20.1538C55.3052 19.1008 55.5176 17.9719 55.5 16.8348ZM24.5975 48.5848C23.7629 49.419 22.717 50.0103 21.5719 50.2953C20.4268 50.5802 19.2257 50.5481 18.0975 50.2023C17.7548 50.0974 17.3859 50.1187 17.0575 50.2623L12.0575 52.4498C11.9719 52.4869 11.8775 52.4994 11.7852 52.4857C11.6928 52.472 11.6062 52.4327 11.535 52.3723L13.815 47.1473C13.9653 46.8068 13.9823 46.4222 13.8625 46.0698C13.4709 44.9216 13.4099 43.6864 13.6867 42.5053C13.9634 41.3241 14.5666 40.2445 15.4275 39.3898L28.5375 26.2773L37.7275 35.4723L24.5975 48.5848ZM50.8875 20.8348L44.5425 27.2248C44.2624 27.5059 44.1051 27.8867 44.1051 28.2835C44.1051 28.6804 44.2624 29.0611 44.5425 29.3423L45.7625 30.5648C45.9949 30.797 46.1793 31.0727 46.3051 31.3762C46.431 31.6797 46.4957 32.005 46.4957 32.3335C46.4957 32.6621 46.431 32.9874 46.3051 33.2909C46.1793 33.5944 45.9949 33.8701 45.7625 34.1023L43.5125 36.3523C43.4188 36.4454 43.2921 36.4977 43.16 36.4977C43.0279 36.4977 42.9012 36.4454 42.8075 36.3523L27.635 21.1773C27.5885 21.1309 27.5516 21.0757 27.5265 21.015C27.5013 20.9543 27.4884 20.8892 27.4884 20.8235C27.4884 20.7578 27.5013 20.6928 27.5265 20.6321C27.5516 20.5714 27.5885 20.5162 27.635 20.4698L29.885 18.2198C30.3538 17.7511 30.9896 17.4878 31.6525 17.4878C32.3154 17.4878 32.9512 17.7511 33.42 18.2198L34.6425 19.4423C34.9239 19.7228 35.3052 19.8801 35.7025 19.8798C35.9 19.8796 36.0955 19.8404 36.2779 19.7645C36.4602 19.6886 36.6257 19.5774 36.765 19.4373L43 13.1648C45.145 11.0198 48.63 10.9148 50.77 12.9523C51.3053 13.4575 51.7337 14.0651 52.0298 14.739C52.326 15.4128 52.4839 16.1393 52.4942 16.8753C52.5044 17.6113 52.3668 18.3418 52.0896 19.0237C51.8123 19.7056 51.401 20.3248 50.88 20.8448L50.8875 20.8348Z" fill="#8AA6AA"/>
</svg>
