<svg width="32" height="32" viewBox="0 0 32 32" fill="none" xmlns="http://www.w3.org/2000/svg">
<path d="M8.00002 9.33301H14.6667C15.0203 9.33301 15.3594 9.47348 15.6095 9.72353C15.8595 9.97358 16 10.3127 16 10.6663C16 11.02 15.8595 11.3591 15.6095 11.6092C15.3594 11.8592 15.0203 11.9997 14.6667 11.9997H8.00002C7.6464 11.9997 7.30726 11.8592 7.05721 11.6092C6.80716 11.3591 6.66669 11.02 6.66669 10.6663C6.66669 10.3127 6.80716 9.97358 7.05721 9.72353C7.30726 9.47348 7.6464 9.33301 8.00002 9.33301ZM17.3334 19.9997H24C24.3536 19.9997 24.6928 20.1401 24.9428 20.3902C25.1929 20.6402 25.3334 20.9794 25.3334 21.333C25.3334 21.6866 25.1929 22.0258 24.9428 22.2758C24.6928 22.5259 24.3536 22.6663 24 22.6663H17.3334C16.9797 22.6663 16.6406 22.5259 16.3905 22.2758C16.1405 22.0258 16 21.6866 16 21.333C16 20.9794 16.1405 20.6402 16.3905 20.3902C16.6406 20.1401 16.9797 19.9997 17.3334 19.9997ZM8.00002 14.6663H24C24.3536 14.6663 24.6928 14.8068 24.9428 15.0569C25.1929 15.3069 25.3334 15.6461 25.3334 15.9997C25.3334 16.3533 25.1929 16.6924 24.9428 16.9425C24.6928 17.1925 24.3536 17.333 24 17.333H8.00002C7.6464 17.333 7.30726 17.1925 7.05721 16.9425C6.80716 16.6924 6.66669 16.3533 6.66669 15.9997C6.66669 15.6461 6.80716 15.3069 7.05721 15.0569C7.30726 14.8068 7.6464 14.6663 8.00002 14.6663Z" fill="white"/>
</svg>
