<svg width="34" height="34" viewBox="0 0 34 34" fill="none" xmlns="http://www.w3.org/2000/svg">
<path d="M5.97833 15.9943L15.9942 5.97844C19.3233 2.66344 24.6925 2.66344 28.0217 5.97844C31.3367 9.29344 31.3367 14.6768 28.0217 18.0059L18.0058 28.0218C14.6767 31.3368 9.29333 31.3368 5.97833 28.0218C2.66333 24.6926 2.66333 19.3234 5.97833 15.9943ZM7.99 18.0059C6.5025 19.4793 6.00666 21.5901 6.51666 23.4743L15.0025 15.0026L21.0092 21.0093L26.01 15.9943C28.2342 13.7843 28.2342 10.2001 26.01 7.9901C23.8 5.76594 20.2158 5.76594 18.0058 7.9901L7.99 18.0059Z" fill="#8AA6AA"/>
</svg>
