<svg width="34" height="34" viewBox="0 0 34 34" fill="none" xmlns="http://www.w3.org/2000/svg">
<path d="M5.97832 15.9943L15.9941 5.97844C19.3233 2.66344 24.6925 2.66344 28.0217 5.97844C31.3367 9.29344 31.3367 14.6768 28.0217 18.0059L18.0058 28.0218C14.6766 31.3368 9.29332 31.3368 5.97832 28.0218C2.66332 24.6926 2.66332 19.3234 5.97832 15.9943ZM7.98998 18.0059C6.50248 19.4793 6.00665 21.5901 6.51665 23.4743L15.0025 15.0026L21.0091 21.0093L26.01 15.9943C28.2342 13.7843 28.2342 10.2001 26.01 7.9901C23.8 5.76594 20.2158 5.76594 18.0058 7.9901L7.98998 18.0059Z" fill="#8AA6AA"/>
</svg>
