<svg width="32" height="32" viewBox="0 0 32 32" fill="none" xmlns="http://www.w3.org/2000/svg">
<path d="M21.658 17.173L20.9339 16.4829L21.6589 17.1721L21.658 17.173ZM27.708 22.3877L28.4321 23.0778L27.707 22.3886L27.708 22.3877ZM7.00296 7.79772C6.99751 7.66648 6.96627 7.5376 6.91101 7.41843C6.85576 7.29927 6.77757 7.19215 6.68092 7.1032C6.58426 7.01425 6.47104 6.94522 6.3477 6.90003C6.22437 6.85484 6.09334 6.83438 5.9621 6.83983C5.83086 6.84528 5.70198 6.87652 5.58281 6.93177C5.46365 6.98703 5.35653 7.06522 5.26758 7.16187C5.17863 7.25852 5.10959 7.37175 5.0644 7.49509C5.01921 7.61842 4.99876 7.74945 5.00421 7.88069L7.00202 7.79866L7.00296 7.79772ZM8.16733 2.89794C8.07676 2.99309 8.00582 3.10515 7.95856 3.22771C7.9113 3.35028 7.88864 3.48095 7.89188 3.61227C7.89512 3.7436 7.92419 3.87299 7.97744 3.99308C8.03069 4.11317 8.10707 4.22159 8.20221 4.31216C8.29736 4.40272 8.40942 4.47366 8.53199 4.52093C8.65455 4.56819 8.78522 4.59085 8.91654 4.58761C9.04787 4.58437 9.17726 4.55529 9.29735 4.50205C9.41744 4.4488 9.52586 4.37242 9.61643 4.27727L8.16733 2.89794ZM15.4156 23.9075C15.5272 23.9807 15.6523 24.0308 15.7836 24.0549C15.9148 24.079 16.0496 24.0766 16.1799 24.0478C16.3102 24.019 16.4334 23.9644 16.5423 23.8873C16.6512 23.8101 16.7435 23.7119 16.8139 23.5985C16.8842 23.4851 16.9312 23.3588 16.952 23.227C16.9727 23.0952 16.9669 22.9605 16.9348 22.831C16.9028 22.7015 16.8451 22.5796 16.7652 22.4727C16.6853 22.3659 16.5848 22.276 16.4697 22.2086L15.4156 23.9075ZM21.0084 24.0451C20.8795 24.0196 20.7469 24.0198 20.618 24.0455C20.4892 24.0713 20.3667 24.1222 20.2575 24.1953C20.1483 24.2684 20.0546 24.3623 19.9817 24.4716C19.9089 24.5809 19.8582 24.7035 19.8327 24.8324C19.8072 24.9613 19.8073 25.0939 19.8331 25.2228C19.8588 25.3516 19.9097 25.4741 19.9828 25.5833C20.0559 25.6924 20.1498 25.7862 20.2591 25.859C20.3685 25.9319 20.4911 25.9826 20.62 26.0081L21.0084 24.0451ZM21.8041 18.4713L22.383 17.8622L20.9339 16.4829L20.355 17.0919L21.8041 18.4713ZM24.2073 17.5841L26.5898 18.937L27.576 17.1966L25.1945 15.8446L24.2073 17.5841ZM26.983 21.6985L25.1756 23.6001L26.6247 24.9776L28.4311 23.0769L26.9811 21.6985L26.983 21.6985ZM12.6306 19.0237C7.83923 13.9722 7.07933 9.67862 7.00296 7.79772L5.00421 7.88069C5.10037 10.217 6.03658 14.9791 11.1796 20.3993L12.6306 19.0237ZM14.4747 10.744L14.8396 10.3603L13.3895 8.98189L13.0237 9.36655L14.4747 10.744ZM15.1733 5.56515L13.6158 3.34389L11.9772 4.49223L13.5357 6.71255L15.1733 5.56515ZM13.7497 10.0548L13.0237 9.36655L13.0087 9.38164L12.9917 9.40238C12.9423 9.45841 12.8976 9.51831 12.8578 9.58152C12.774 9.71236 12.7051 9.85213 12.6523 9.99824C12.4973 10.4468 12.4546 10.9266 12.5278 11.3955C12.6815 12.5353 13.4093 14.0514 15.3101 16.0558L16.7629 14.6783C14.9989 12.8201 14.5841 11.6774 14.5105 11.1287C14.4738 10.8637 14.5162 10.727 14.5303 10.6846C14.5388 10.6629 14.5445 10.6573 14.5369 10.6686C14.5255 10.6857 14.5126 10.7018 14.4983 10.7167L14.487 10.7299L14.4757 10.7412C14.4747 10.7421 14.4738 10.7431 13.7488 10.0539L13.7497 10.0548ZM15.3101 16.0558C17.206 18.0536 18.6589 18.8427 19.7837 19.0115C20.3607 19.0982 20.8274 19.0181 21.1819 18.8748C21.3784 18.7955 21.5611 18.6854 21.723 18.5486C21.7484 18.5262 21.7729 18.503 21.7966 18.4788L21.8022 18.4731C21.8032 18.4722 21.8041 18.4713 21.0791 17.7821C20.355 17.0919 20.355 17.0919 20.3569 17.09L20.3616 17.0853C20.3836 17.0632 20.4069 17.0424 20.4314 17.0231C20.4446 17.0137 20.4455 17.0146 20.4323 17.0203C20.3186 17.0555 20.1976 17.06 20.0816 17.0335C19.6008 16.9618 18.5316 16.5432 16.762 14.6774L15.3101 16.0558ZM13.6158 3.34389C12.3232 1.49881 9.72956 1.25463 8.16733 2.89794L9.61737 4.27633C10.2792 3.57865 11.3861 3.64842 11.9772 4.49223L13.6158 3.34389ZM25.1756 23.6001C24.8221 23.9726 24.4581 24.1668 24.1149 24.2064L24.3346 26.1929C25.2878 26.0882 26.059 25.5716 26.6247 24.9776L25.1756 23.6001ZM14.8396 10.3603C16.0737 9.06203 16.2001 7.03122 15.1733 5.56515L13.5357 6.71255C14.0297 7.41777 13.9515 8.3898 13.3895 8.98189L14.8396 10.3603ZM26.5898 18.937C27.5477 19.4801 27.7608 20.8811 26.982 21.6994L28.4321 23.0778C30.0942 21.3289 29.6794 18.3892 27.576 17.1966L26.5898 18.937ZM22.3839 17.8613C22.8704 17.3484 23.6049 17.2418 24.2073 17.5841L25.1945 15.8446C24.516 15.4568 23.7256 15.308 22.9528 15.424C22.1799 15.54 21.4687 15.913 20.9339 16.4829L22.3839 17.8613ZM16.4725 22.2076C15.2516 21.4487 13.9552 20.42 12.6306 19.0237L11.1796 20.3993C12.6174 21.9125 14.0429 23.0552 15.4156 23.9075L16.4706 22.2076L16.4725 22.2076ZM24.114 24.2054C23.0767 24.3097 22.0295 24.2556 21.0084 24.0451L20.619 26.0071C21.8407 26.2568 23.0932 26.3191 24.3337 26.1919L24.114 24.2054Z" fill="#8AA6AA"/>
</svg>
