<svg width="20" height="20" viewBox="0 0 20 20" fill="none" xmlns="http://www.w3.org/2000/svg">
<g clip-path="url(#clip0_2707_9384)">
<path d="M20 8.19961C18.0346 8.20372 16.1174 7.6674 14.5192 6.66641V13.6477C14.5187 14.9407 14.067 16.2027 13.2246 17.265C12.3822 18.3274 11.1892 19.1393 9.80517 19.5924C8.42113 20.0455 6.91201 20.118 5.47959 19.8003C4.04716 19.4826 2.75972 18.7899 1.7894 17.8147C0.819091 16.8395 0.212157 15.6283 0.0497592 14.3431C-0.112639 13.058 0.17724 11.76 0.880634 10.6229C1.58403 9.48579 2.66741 8.56366 3.98592 7.97983C5.30442 7.39601 6.79521 7.17832 8.25893 7.35586V10.8672C7.58913 10.6828 6.86988 10.6884 6.2039 10.8831C5.53792 11.0777 4.95927 11.4515 4.55057 11.9511C4.14188 12.4507 3.92405 13.0505 3.92818 13.6649C3.93232 14.2793 4.15821 14.8768 4.5736 15.3721C4.98899 15.8675 5.57264 16.2353 6.24119 16.4231C6.90975 16.6109 7.62902 16.609 8.29629 16.4178C8.96357 16.2265 9.54472 15.8557 9.95675 15.3582C10.3688 14.8607 10.5906 14.262 10.5906 13.6477V0H14.5192C14.5165 0.290289 14.5443 0.580182 14.6022 0.866016C14.7387 1.50409 15.0226 2.1111 15.4364 2.6499C15.8502 3.1887 16.3853 3.64796 17.0089 3.99961C17.8962 4.51293 18.9364 4.78652 20 4.78633V8.19961Z" fill="white"/>
</g>
<defs>
<clipPath id="clip0_2707_9384">
<rect width="20" height="20" fill="white"/>
</clipPath>
</defs>
</svg>
